<?xml version="1.0" encoding="utf-8"?>
<svg viewBox="0 0 500 500" xmlns="http://www.w3.org/2000/svg">
  <path d="M 131.022 34.51 H 364.549 A 13.29 13.29 0 0 1 377.839 47.8 V 358.536 A 13.29 13.29 0 0 1 364.549 371.826 H 131.022 A 13.29 13.29 0 0 1 117.732 358.536 V 47.8 A 13.29 13.29 0 0 1 131.022 34.51 Z"/>
  <path d="M 167.095 73.114 H 336.069 V 98.429 H 167.095 V 73.114 Z" style="fill: rgb(255, 255, 255);"/>
  <path d="M 166.146 133.237 H 335.12 V 158.552 H 166.146 V 133.237 Z" style="fill: rgb(255, 255, 255);"/>
  <path d="M 165.513 194.624 H 334.487 V 219.939 H 165.513 V 194.624 Z" style="fill: rgb(255, 255, 255);"/>
  <path d="M 42.421 419.924 H 463.908 V 445.871 H 42.421 V 419.924 Z"/>
  <path d="M 198.106 401.571 H 298.731 A 10.759 10.759 0 0 1 309.49 412.33 V 460.427 A 10.759 10.759 0 0 1 298.731 471.186 H 198.106 A 10.759 10.759 0 0 1 187.347 460.427 V 412.33 A 10.759 10.759 0 0 1 198.106 401.571 Z"/>
  <path d="M 13.886 419.924 H 151.85 V 445.871 H 13.886 V 419.924 Z" transform="matrix(0, -1, 0.999999, 0, -182.896052, 437.607131)"/>
</svg>